<svg xmlns="http://www.w3.org/2000/svg" viewBox="0 0 1289.6 1289.59"><defs><style>.cls-1{fill:#3cb2c2;}.cls-1,.cls-2{fill-rule:evenodd;}.cls-2{fill:#fff;}</style></defs><title>Asset 1</title><g id="Layer_2" data-name="Layer 2"><g id="Layer_1-2" data-name="Layer 1"><path class="cls-1" d="M288.48,0h712.6c158.69,0,288.52,129.84,288.52,288.52v712.55c0,158.73-129.83,288.52-288.52,288.52H288.48C129.8,1289.59,0,1159.8,0,1001.07V288.52C0,129.84,129.8,0,288.48,0"/><path class="cls-2" d="M420.57,320c-59.49,0-110.26,22.12-151.8,59.41-41.36,37-62.61,82.49-62.61,136.89,0,53.73,19.24,107.92,61.07,146.24,41.42,37.9,87.84,49.55,147.21,49.55h46a63.58,63.58,0,0,1,44.05,17.17c12,11,18.45,24.58,18.45,40.78A52.64,52.64,0,0,1,505,810.33c-11.4,10.22-27.31,16.53-44.55,16.53H292.53L204.4,969.59H454.73c61.65,0,113.5-20.11,156-58.73,43.18-39.29,64.59-86.76,64.88-142.74.62-107.33-76.56-200.47-201.35-201.93-16.36-.21.38.45-47.88.45-15.24,0-28.06-5-38.37-14.73-10.48-9.82-16.07-21.71-16.2-35.57s5.6-25.47,15.7-35.11c10.77-10.32,23.67-14.57,38.87-14.57H864.19c15.23,0,28.09,4.29,38.83,14.57,10.1,9.6,15.69,21.33,15.69,35.11s-5.88,26-16.16,35.57-23.38,14.73-38.36,14.73l-199.68.13L891.62,969.59h193.54l-161-259.46c94.81-13.07,160.15-89.38,160.15-193.79,0-54.4-21.3-99.86-62.63-136.89C980.13,342.16,929.31,320,869.91,320H613.16"/></g></g></svg>